<svg width="21" height="21" viewBox="0 0 21 21" fill="none" xmlns="http://www.w3.org/2000/svg">
<circle cx="10.5" cy="10.5" r="10" fill="url(#paint0_linear_0_148)"/>
<path d="M8.08704 14.5946C7.96728 14.4748 7.90741 14.3331 7.90741 14.1692C7.90741 14.0057 7.96728 13.8641 8.08704 13.7444L11.5957 10.2357L8.07506 6.71503C7.96329 6.60327 7.90741 6.46356 7.90741 6.29591C7.90741 6.12826 7.96728 5.98456 8.08704 5.86481C8.20679 5.74506 8.34857 5.68518 8.51239 5.68518C8.67589 5.68518 8.81751 5.74506 8.93726 5.86481L12.9609 9.90039C13.0088 9.94829 13.0428 10.0002 13.0629 10.0561C13.0827 10.1119 13.0926 10.1718 13.0926 10.2357C13.0926 10.2996 13.0827 10.3594 13.0629 10.4153C13.0428 10.4712 13.0088 10.5231 12.9609 10.571L8.92529 14.6066C8.81352 14.7183 8.67589 14.7742 8.51239 14.7742C8.34857 14.7742 8.20679 14.7143 8.08704 14.5946Z" fill="black"/>
<defs>
<linearGradient id="paint0_linear_0_148" x1="0.5" y1="0.5" x2="21.2079" y2="1.26202" gradientUnits="userSpaceOnUse">
<stop offset="0.00698255" stop-color="#E3E3E3"/>
<stop offset="0.552083" stop-color="#E3E3E3"/>
<stop offset="1" stop-color="#E3E3E3"/>
</linearGradient>
</defs>
</svg>
