<svg width="21" height="21" viewBox="0 0 21 21" fill="none" xmlns="http://www.w3.org/2000/svg">
<circle cx="10.5" cy="10.5" r="10" fill="url(#paint0_linear_0_151)"/>
<path d="M12.913 14.5946C13.0327 14.4748 13.0926 14.3331 13.0926 14.1692C13.0926 14.0057 13.0327 13.8641 12.913 13.7444L9.40428 10.2357L12.9249 6.71503C13.0367 6.60327 13.0926 6.46356 13.0926 6.29591C13.0926 6.12826 13.0327 5.98456 12.913 5.86481C12.7932 5.74506 12.6514 5.68518 12.4876 5.68518C12.3241 5.68518 12.1825 5.74506 12.0627 5.86481L8.03913 9.90039C7.99123 9.94829 7.95722 10.0002 7.9371 10.0561C7.9173 10.1119 7.90741 10.1718 7.90741 10.2357C7.90741 10.2996 7.9173 10.3594 7.9371 10.4153C7.95722 10.4712 7.99123 10.5231 8.03913 10.571L12.0747 14.6066C12.1865 14.7183 12.3241 14.7742 12.4876 14.7742C12.6514 14.7742 12.7932 14.7143 12.913 14.5946Z" fill="black"/>
<defs>
<linearGradient id="paint0_linear_0_151" x1="0.5" y1="0.5" x2="21.6428" y2="1.79145" gradientUnits="userSpaceOnUse">
<stop stop-color="#07C800"/>
<stop offset="0.612619" stop-color="#57FF51"/>
<stop offset="1" stop-color="#07C800"/>
</linearGradient>
</defs>
</svg>
